<svg width="40" height="54" viewBox="0 0 40 54" fill="none" xmlns="http://www.w3.org/2000/svg">
<path fill-rule="evenodd" clip-rule="evenodd" d="M39.3906 3.63988C39.3906 1.80383 37.9022 0.31543 36.0662 0.31543C35.8795 0.31543 35.6965 0.330812 35.5182 0.360378C34.8573 0.469812 34.2232 0.779424 33.7134 1.28922L11.5967 23.4059C10.2984 24.7042 10.2984 26.8091 11.5967 28.1074C12.895 29.4057 14.9999 29.4057 16.2982 28.1074L32.7417 11.6638V35.4184C31.4778 34.3472 29.5842 34.3638 28.3374 35.5175C26.9898 36.7645 26.9083 38.8678 28.1553 40.2154L33.6005 46.0999C34.2089 46.7721 35.0882 47.1944 36.0662 47.1944C37.9022 47.1944 39.3906 45.706 39.3906 43.8699V3.63988Z" fill="url(#paint0_linear_373_14)"/>
<path fill-rule="evenodd" clip-rule="evenodd" d="M2.81348 53.0087C1.28894 52.7062 0.139648 51.3612 0.139648 49.7478V9.51781C0.139648 7.68177 1.62806 6.19336 3.4641 6.19336C4.04421 6.19336 4.58962 6.34195 5.06434 6.60314C5.37062 6.77111 5.65544 6.9906 5.90575 7.26111L11.3753 13.1718C12.6223 14.5194 12.5408 16.6227 11.1932 17.8698C9.94631 19.0236 8.05246 19.04 6.78855 17.9686V41.7259L23.2331 25.2813C24.5314 23.983 26.6363 23.983 27.9346 25.2813C29.2328 26.5796 29.2328 28.6845 27.9346 29.9828L5.81787 52.0995C5.00162 52.9157 3.86651 53.2188 2.81348 53.0087Z" fill="url(#paint1_linear_373_14)"/>
<defs>
<linearGradient id="paint0_linear_373_14" x1="12.7657" y1="23.9385" x2="36.7657" y2="44.9385" gradientUnits="userSpaceOnUse">
<stop stop-color="#33CCCC"/>
<stop offset="0.964547" stop-color="#33CC66"/>
</linearGradient>
<linearGradient id="paint1_linear_373_14" x1="1.26574" y1="7.93848" x2="17.2657" y2="57.4385" gradientUnits="userSpaceOnUse">
<stop stop-color="#FFCC00"/>
<stop offset="1" stop-color="#FF0000"/>
</linearGradient>
</defs>
</svg>
